<svg width="1200" height="1000" xmlns="http://www.w3.org/2000/svg">
    <!-- 定义渐变 -->
    <defs>
        <linearGradient id="gradAll" x1="0%" y1="0%" x2="100%" y2="100%">
            <stop offset="0%" stop-color="#4b6cb7" stop-opacity="0.8"/>
            <stop offset="100%" stop-color="#182848" stop-opacity="0.9"/>
        </linearGradient>
        <linearGradient id="gradGas" x1="0%" y1="0%" x2="100%" y2="100%">
            <stop offset="0%" stop-color="#38a3a5" stop-opacity="0.8"/>
            <stop offset="100%" stop-color="#056674" stop-opacity="0.9"/>
        </linearGradient>
        <linearGradient id="gradExtend" x1="0%" y1="0%" x2="100%" y2="100%">
            <stop offset="0%" stop-color="#f08700" stop-opacity="0.8"/>
            <stop offset="100%" stop-color="#d95d39" stop-opacity="0.9"/>
        </linearGradient>
        <linearGradient id="gradRenew" x1="0%" y1="0%" x2="100%" y2="100%">
            <stop offset="0%" stop-color="#557b83" stop-opacity="0.8"/>
            <stop offset="100%" stop-color="#405459" stop-opacity="0.9"/>
        </linearGradient>
        <linearGradient id="gradExt" x1="0%" y1="0%" x2="100%" y2="100%">
            <stop offset="0%" stop-color="#6c464f" stop-opacity="0.8"/>
            <stop offset="100%" stop-color="#432c32" stop-opacity="0.9"/>
        </linearGradient>
        <linearGradient id="gradESB" x1="0%" y1="0%" x2="100%" y2="100%">
            <stop offset="0%" stop-color="#2a9d8f" stop-opacity="0.8"/>
            <stop offset="100%" stop-color="#184e77" stop-opacity="0.9"/>
        </linearGradient>
        <linearGradient id="gradService" x1="0%" y1="0%" x2="100%" y2="100%">
            <stop offset="0%" stop-color="#588157" stop-opacity="0.8"/>
            <stop offset="100%" stop-color="#3a5a40" stop-opacity="0.9"/>
        </linearGradient>
        
        <!-- 定义阴影 -->
        <filter id="shadow" x="-20%" y="-20%" width="140%" height="140%">
            <feDropShadow dx="3" dy="3" stdDeviation="3" flood-color="#00000044"/>
        </filter>
        
        <!-- 定义箭头 -->
        <marker id="arrowhead" markerWidth="10" markerHeight="7" refX="9" refY="3.5" orient="auto">
            <polygon points="0 0, 10 3.5, 0 7" fill="#333"/>
        </marker>
        <marker id="bidirectional" markerWidth="10" markerHeight="7" refX="5" refY="3.5" orient="auto">
            <polygon points="0 0, 5 3.5, 0 7" fill="#333"/>
        </marker>
    </defs>
    
    <!-- 背景 -->
    <rect width="1200" height="1000" fill="#f4f7fc"/>
    
    <!-- 标题 -->
    <text x="600" y="50" font-family="Arial" font-size="28" font-weight="bold" text-anchor="middle" fill="#333">港华集团未来SOA集成架构图</text>
    <text x="600" y="80" font-family="Arial" font-size="16" text-anchor="middle" fill="#555">(基于ESB服务总线与SOA服务治理)</text>
    
    <!-- 服务层划分 -->
    <!-- 共享基础服务层 -->
    <rect x="50" y="120" width="1100" height="160" rx="15" fill="#f2f2f2" stroke="#ccc" stroke-width="1" stroke-dasharray="5,3"/>
    <text x="120" y="145" font-family="Arial" font-size="18" font-weight="bold" fill="#4b6cb7">共享基础服务层</text>
    
    <!-- 企业服务总线层 (ESB) -->
    <rect x="50" y="290" width="1100" height="160" rx="15" fill="#e0f5ee" stroke="#2a9d8f" stroke-width="2"/>
    <text x="120" y="315" font-family="Arial" font-size="18" font-weight="bold" fill="#2a9d8f">企业服务总线 (ESB)</text>
    
    <!-- 业务服务层 -->
    <rect x="50" y="460" width="1100" height="360" rx="15" fill="#f7f7f7" stroke="#ccc" stroke-width="1" stroke-dasharray="5,3"/>
    <text x="120" y="485" font-family="Arial" font-size="18" font-weight="bold" fill="#555">业务服务层</text>
    
    <!-- MU板块 -->
    <rect x="100" y="510" width="470" height="140" rx="10" fill="#edf9f9" stroke="#ccc" stroke-width="1"/>
    <text x="130" y="535" font-family="Arial" font-size="16" font-weight="bold" fill="#38a3a5">MU板块服务</text>
    
    <!-- 延伸业务 -->
    <rect x="630" y="510" width="470" height="140" rx="10" fill="#fff9ea" stroke="#ccc" stroke-width="1"/>
    <text x="660" y="535" font-family="Arial" font-size="16" font-weight="bold" fill="#f08700">延伸业务服务</text>
    
    <!-- 再生业务 -->
    <rect x="100" y="660" width="1000" height="140" rx="10" fill="#eef2f3" stroke="#ccc" stroke-width="1"/>
    <text x="130" y="685" font-family="Arial" font-size="16" font-weight="bold" fill="#557b83">再生业务服务</text>
    
    <!-- 外部系统接入层 -->
    <rect x="50" y="830" width="1100" height="120" rx="15" fill="#f5eef0" stroke="#ccc" stroke-width="1" stroke-dasharray="5,3"/>
    <text x="120" y="855" font-family="Arial" font-size="18" font-weight="bold" fill="#6c464f">外部系统接入层</text>
    
    <!-- 系统节点 -->
    <!-- 共享基础服务层节点 -->
    <g transform="translate(180, 200)">
        <rect x="-70" y="-30" width="140" height="60" rx="10" fill="url(#gradAll)" stroke="#4b6cb7" stroke-width="2" filter="url(#shadow)"/>
        <text x="0" y="0" font-family="Arial" font-size="16" font-weight="bold" text-anchor="middle" fill="white">AD</text>
        <text x="0" y="20" font-family="Arial" font-size="12" text-anchor="middle" fill="white">统一身份认证</text>
    </g>
    
    <g transform="translate(400, 200)">
        <rect x="-70" y="-30" width="140" height="60" rx="10" fill="url(#gradAll)" stroke="#4b6cb7" stroke-width="2" filter="url(#shadow)"/>
        <text x="0" y="0" font-family="Arial" font-size="16" font-weight="bold" text-anchor="middle" fill="white">MDM</text>
        <text x="0" y="20" font-family="Arial" font-size="12" text-anchor="middle" fill="white">主数据管理</text>
    </g>
    
    <g transform="translate(620, 200)">
        <rect x="-70" y="-30" width="140" height="60" rx="10" fill="url(#gradAll)" stroke="#4b6cb7" stroke-width="2" filter="url(#shadow)"/>
        <text x="0" y="0" font-family="Arial" font-size="16" font-weight="bold" text-anchor="middle" fill="white">BI</text>
        <text x="0" y="20" font-family="Arial" font-size="12" text-anchor="middle" fill="white">数据分析平台</text>
    </g>
    
    <g transform="translate(840, 200)">
        <rect x="-70" y="-30" width="140" height="60" rx="10" fill="url(#gradAll)" stroke="#4b6cb7" stroke-width="2" filter="url(#shadow)"/>
        <text x="0" y="0" font-family="Arial" font-size="16" font-weight="bold" text-anchor="middle" fill="white">API网关</text>
        <text x="0" y="20" font-family="Arial" font-size="12" text-anchor="middle" fill="white">接口管理与安全</text>
    </g>
    
    <g transform="translate(1040, 200)">
        <rect x="-70" y="-30" width="140" height="60" rx="10" fill="url(#gradAll)" stroke="#4b6cb7" stroke-width="2" filter="url(#shadow)"/>
        <text x="0" y="0" font-family="Arial" font-size="16" font-weight="bold" text-anchor="middle" fill="white">Dify</text>
        <text x="0" y="20" font-family="Arial" font-size="12" text-anchor="middle" fill="white">AI智能体平台</text>
    </g>
    
    <!-- ESB核心组件 -->
    <g transform="translate(180, 360)">
        <rect x="-80" y="-30" width="160" height="60" rx="10" fill="url(#gradESB)" stroke="#2a9d8f" stroke-width="2" filter="url(#shadow)"/>
        <text x="0" y="0" font-family="Arial" font-size="16" font-weight="bold" text-anchor="middle" fill="white">服务注册中心</text>
        <text x="0" y="20" font-family="Arial" font-size="12" text-anchor="middle" fill="white">服务发现与注册</text>
    </g>
    
    <g transform="translate(400, 360)">
        <rect x="-80" y="-30" width="160" height="60" rx="10" fill="url(#gradESB)" stroke="#2a9d8f" stroke-width="2" filter="url(#shadow)"/>
        <text x="0" y="0" font-family="Arial" font-size="16" font-weight="bold" text-anchor="middle" fill="white">消息转换服务</text>
        <text x="0" y="20" font-family="Arial" font-size="12" text-anchor="middle" fill="white">数据格式适配</text>
    </g>
    
    <g transform="translate(620, 360)">
        <rect x="-80" y="-30" width="160" height="60" rx="10" fill="url(#gradESB)" stroke="#2a9d8f" stroke-width="2" filter="url(#shadow)"/>
        <text x="0" y="0" font-family="Arial" font-size="16" font-weight="bold" text-anchor="middle" fill="white">用友YSB</text>
        <text x="0" y="20" font-family="Arial" font-size="12" text-anchor="middle" fill="white">企业服务总线核心</text>
    </g>
    
    <g transform="translate(840, 360)">
        <rect x="-80" y="-30" width="160" height="60" rx="10" fill="url(#gradESB)" stroke="#2a9d8f" stroke-width="2" filter="url(#shadow)"/>
        <text x="0" y="0" font-family="Arial" font-size="16" font-weight="bold" text-anchor="middle" fill="white">服务编排引擎</text>
        <text x="0" y="20" font-family="Arial" font-size="12" text-anchor="middle" fill="white">流程编排与管理</text>
    </g>
    
    <g transform="translate(1040, 360)">
        <rect x="-80" y="-30" width="160" height="60" rx="10" fill="url(#gradESB)" stroke="#2a9d8f" stroke-width="2" filter="url(#shadow)"/>
        <text x="0" y="0" font-family="Arial" font-size="16" font-weight="bold" text-anchor="middle" fill="white">监控与治理</text>
        <text x="0" y="20" font-family="Arial" font-size="12" text-anchor="middle" fill="white">服务质量监控</text>
    </g>
    
    <!-- MU板块服务 -->
    <g transform="translate(200, 580)">
        <rect x="-60" y="-30" width="120" height="60" rx="10" fill="url(#gradGas)" stroke="#38a3a5" stroke-width="2" filter="url(#shadow)"/>
        <text x="0" y="0" font-family="Arial" font-size="16" font-weight="bold" text-anchor="middle" fill="white">TMS服务</text>
        <text x="0" y="20" font-family="Arial" font-size="12" text-anchor="middle" fill="white">财务/人力/供应链</text>
    </g>
    
    <g transform="translate(360, 580)">
        <rect x="-60" y="-30" width="120" height="60" rx="10" fill="url(#gradGas)" stroke="#38a3a5" stroke-width="2" filter="url(#shadow)"/>
        <text x="0" y="0" font-family="Arial" font-size="16" font-weight="bold" text-anchor="middle" fill="white">TCIS服务</text>
        <text x="0" y="20" font-family="Arial" font-size="12" text-anchor="middle" fill="white">燃气业务</text>
    </g>
    
    <g transform="translate(520, 580)">
        <rect x="-60" y="-30" width="120" height="60" rx="10" fill="url(#gradGas)" stroke="#38a3a5" stroke-width="2" filter="url(#shadow)"/>
        <text x="0" y="0" font-family="Arial" font-size="16" font-weight="bold" text-anchor="middle" fill="white">TOP服务</text>
        <text x="0" y="20" font-family="Arial" font-size="12" text-anchor="middle" fill="white">生产运行</text>
    </g>
    
    <!-- 延伸业务服务 -->
    <g transform="translate(720, 580)">
        <rect x="-60" y="-30" width="120" height="60" rx="10" fill="url(#gradExtend)" stroke="#f08700" stroke-width="2" filter="url(#shadow)"/>
        <text x="0" y="0" font-family="Arial" font-size="16" font-weight="bold" text-anchor="middle" fill="white">TLC服务</text>
        <text x="0" y="20" font-family="Arial" font-size="12" text-anchor="middle" fill="white">贸易系统</text>
    </g>
    
    <g transform="translate(880, 580)">
        <rect x="-60" y="-30" width="120" height="60" rx="10" fill="url(#gradExtend)" stroke="#f08700" stroke-width="2" filter="url(#shadow)"/>
        <text x="0" y="0" font-family="Arial" font-size="16" font-weight="bold" text-anchor="middle" fill="white">票据服务</text>
        <text x="0" y="20" font-family="Arial" font-size="12" text-anchor="middle" fill="white">发票/凭证管理</text>
    </g>
    
    <g transform="translate(1040, 580)">
        <rect x="-60" y="-30" width="120" height="60" rx="10" fill="url(#gradExtend)" stroke="#f08700" stroke-width="2" filter="url(#shadow)"/>
        <text x="0" y="0" font-family="Arial" font-size="16" font-weight="bold" text-anchor="middle" fill="white">NC财务</text>
        <text x="0" y="20" font-family="Arial" font-size="12" text-anchor="middle" fill="white">财务管理</text>
    </g>
    
    <!-- 再生业务服务 -->
    <g transform="translate(200, 730)">
        <rect x="-60" y="-30" width="120" height="60" rx="10" fill="url(#gradRenew)" stroke="#557b83" stroke-width="2" filter="url(#shadow)"/>
        <text x="0" y="0" font-family="Arial" font-size="16" font-weight="bold" text-anchor="middle" fill="white">碳汭星云</text>
        <text x="0" y="20" font-family="Arial" font-size="12" text-anchor="middle" fill="white">能源平台</text>
    </g>
    
    <g transform="translate(360, 730)">
        <rect x="-60" y="-30" width="120" height="60" rx="10" fill="url(#gradRenew)" stroke="#557b83" stroke-width="2" filter="url(#shadow)"/>
        <text x="0" y="0" font-family="Arial" font-size="16" font-weight="bold" text-anchor="middle" fill="white">光伏星</text>
        <text x="0" y="20" font-family="Arial" font-size="12" text-anchor="middle" fill="white">光伏管理</text>
    </g>
    
    <g transform="translate(520, 730)">
        <rect x="-60" y="-30" width="120" height="60" rx="10" fill="url(#gradRenew)" stroke="#557b83" stroke-width="2" filter="url(#shadow)"/>
        <text x="0" y="0" font-family="Arial" font-size="16" font-weight="bold" text-anchor="middle" fill="white">VPP星</text>
        <text x="0" y="20" font-family="Arial" font-size="12" text-anchor="middle" fill="white">虚拟电厂</text>
    </g>
    
    <g transform="translate(680, 730)">
        <rect x="-60" y="-30" width="120" height="60" rx="10" fill="url(#gradRenew)" stroke="#557b83" stroke-width="2" filter="url(#shadow)"/>
        <text x="0" y="0" font-family="Arial" font-size="16" font-weight="bold" text-anchor="middle" fill="white">运维星</text>
        <text x="0" y="20" font-family="Arial" font-size="12" text-anchor="middle" fill="white">运维管理</text>
    </g>
    
    <g transform="translate(840, 730)">
        <rect x="-60" y="-30" width="120" height="60" rx="10" fill="url(#gradRenew)" stroke="#557b83" stroke-width="2" filter="url(#shadow)"/>
        <text x="0" y="0" font-family="Arial" font-size="16" font-weight="bold" text-anchor="middle" fill="white">微网星</text>
        <text x="0" y="20" font-family="Arial" font-size="12" text-anchor="middle" fill="white">能源微网</text>
    </g>
    
    <g transform="translate(1000, 730)">
        <rect x="-60" y="-30" width="120" height="60" rx="10" fill="url(#gradRenew)" stroke="#557b83" stroke-width="2" filter="url(#shadow)"/>
        <text x="0" y="0" font-family="Arial" font-size="16" font-weight="bold" text-anchor="middle" fill="white">储能星</text>
        <text x="0" y="20" font-family="Arial" font-size="12" text-anchor="middle" fill="white">储能管理</text>
    </g>
    
    <!-- 外部系统 -->
    <g transform="translate(200, 900)">
        <rect x="-60" y="-30" width="120" height="60" rx="10" fill="url(#gradExt)" stroke="#6c464f" stroke-width="2" filter="url(#shadow)"/>
        <text x="0" y="0" font-family="Arial" font-size="16" font-weight="bold" text-anchor="middle" fill="white">支付平台</text>
    </g>
    
    <g transform="translate(400, 900)">
        <rect x="-60" y="-30" width="120" height="60" rx="10" fill="url(#gradExt)" stroke="#6c464f" stroke-width="2" filter="url(#shadow)"/>
        <text x="0" y="0" font-family="Arial" font-size="16" font-weight="bold" text-anchor="middle" fill="white">微信/APP</text>
    </g>
    
    <g transform="translate(600, 900)">
        <rect x="-60" y="-30" width="120" height="60" rx="10" fill="url(#gradExt)" stroke="#6c464f" stroke-width="2" filter="url(#shadow)"/>
        <text x="0" y="0" font-family="Arial" font-size="16" font-weight="bold" text-anchor="middle" fill="white">智能终端</text>
    </g>
    
    <g transform="translate(800, 900)">
        <rect x="-60" y="-30" width="120" height="60" rx="10" fill="url(#gradExt)" stroke="#6c464f" stroke-width="2" filter="url(#shadow)"/>
        <text x="0" y="0" font-family="Arial" font-size="16" font-weight="bold" text-anchor="middle" fill="white">传感设备</text>
    </g>
    
    <g transform="translate(1000, 900)">
        <rect x="-60" y="-30" width="120" height="60" rx="10" fill="url(#gradExt)" stroke="#6c464f" stroke-width="2" filter="url(#shadow)"/>
        <text x="0" y="0" font-family="Arial" font-size="16" font-weight="bold" text-anchor="middle" fill="white">第三方API</text>
    </g>
    
    <!-- 连接线 -->
    <!-- 共享服务层到ESB的连接 -->
    <path d="M 180,230 C 180,260 180,290 180,320" stroke="#2a9d8f" stroke-width="2" fill="none" marker-end="url(#arrowhead)"/>
    <path d="M 400,230 C 400,260 400,290 400,320" stroke="#2a9d8f" stroke-width="2" fill="none" marker-end="url(#arrowhead)"/>
    <path d="M 620,230 C 620,260 620,290 620,320" stroke="#2a9d8f" stroke-width="2" fill="none" marker-end="url(#arrowhead)"/>
    <path d="M 840,230 C 840,260 840,290 840,320" stroke="#2a9d8f" stroke-width="2" fill="none" marker-end="url(#arrowhead)"/>
    <path d="M 1040,230 C 1040,260 1040,290 1040,320" stroke="#2a9d8f" stroke-width="2" fill="none" marker-end="url(#arrowhead)"/>
    
    <!-- ESB到业务服务层的连接 -->
    <!-- MU板块服务 -->
    <path d="M 620,390 C 500,420 350,480 200,550" stroke="#2a9d8f" stroke-width="2" fill="none" marker-end="url(#arrowhead)"/>
    <path d="M 620,390 C 520,420 420,480 360,550" stroke="#2a9d8f" stroke-width="2" fill="none" marker-end="url(#arrowhead)"/>
    <path d="M 620,390 C 550,420 540,480 520,550" stroke="#2a9d8f" stroke-width="2" fill="none" marker-end="url(#arrowhead)"/>
    
    <!-- 延伸业务服务 -->
    <path d="M 620,390 C 650,420 680,480 720,550" stroke="#2a9d8f" stroke-width="2" fill="none" marker-end="url(#arrowhead)"/>
    <path d="M 620,390 C 700,420 780,480 880,550" stroke="#2a9d8f" stroke-width="2" fill="none" marker-end="url(#arrowhead)"/>
    <path d="M 620,390 C 750,420 850,480 1040,550" stroke="#2a9d8f" stroke-width="2" fill="none" marker-end="url(#arrowhead)"/>
    
    <!-- 再生业务服务 -->
    <path d="M 620,390 C 480,430 350,650 200,700" stroke="#2a9d8f" stroke-width="2" fill="none" marker-end="url(#arrowhead)"/>
    <path d="M 620,390 C 540,430 420,650 360,700" stroke="#2a9d8f" stroke-width="2" fill="none" marker-end="url(#arrowhead)"/>
    <path d="M 620,390 C 580,430 530,650 520,700" stroke="#2a9d8f" stroke-width="2" fill="none" marker-end="url(#arrowhead)"/>
    <path d="M 620,390 C 635,430 640,650 680,700" stroke="#2a9d8f" stroke-width="2" fill="none" marker-end="url(#arrowhead)"/>
    <path d="M 620,390 C 680,430 720,650 840,700" stroke="#2a9d8f" stroke-width="2" fill="none" marker-end="url(#arrowhead)"/>
    <path d="M 620,390 C 730,430 800,650 1000,700" stroke="#2a9d8f" stroke-width="2" fill="none" marker-end="url(#arrowhead)"/>
    
    <!-- ESB到外部系统的连接 -->
    <path d="M 840,390 C 700,550 400,820 400,870" stroke="#2a9d8f" stroke-width="2" fill="none" marker-end="url(#arrowhead)"/>
    <path d="M 840,390 C 750,550 600,820 600,870" stroke="#2a9d8f" stroke-width="2" fill="none" marker-end="url(#arrowhead)"/>
    <path d="M 840,390 C 800,550 800,800 800,870" stroke="#2a9d8f" stroke-width="2" fill="none" marker-end="url(#arrowhead)"/>
    
    <!-- API网关到外部系统连接 -->
    <path d="M 840,230 C 650,450 250,750 200,870" stroke="#666" stroke-width="2" stroke-dasharray="5,5" fill="none" marker-end="url(#arrowhead)"/>
    <path d="M 840,230 C 900,450 950,750 1000,870" stroke="#666" stroke-width="2" stroke-dasharray="5,5" fill="none" marker-end="url(#arrowhead)"/>
    
    <!-- ESB内部服务连接 -->
    <path d="M 260,360 C 300,360 340,360 320,360" stroke="#2a9d8f" stroke-width="2" fill="none" marker-end="url(#arrowhead)"/>
    <path d="M 480,360 C 520,360 560,360 540,360" stroke="#2a9d8f" stroke-width="2" fill="none" marker-end="url(#arrowhead)"/>
    <path d="M 700,360 C 740,360 780,360 760,360" stroke="#2a9d8f" stroke-width="2" fill="none" marker-end="url(#arrowhead)"/>
    <path d="M 920,360 C 960,360 1000,360 980,360" stroke="#2a9d8f" stroke-width="2" fill="none" marker-end="url(#arrowhead)"/>
    
    <!-- SOA服务治理标识 -->
    <g transform="translate(620, 430)">
        <rect x="-150" y="-15" width="300" height="30" rx="15" fill="#fff" stroke="#2a9d8f" stroke-width="2"/>
        <text x="0" y="5" font-family="Arial" font-size="14" font-weight="bold" text-anchor="middle" fill="#2a9d8f">SOA服务治理 · 标准化服务接口</text>
    </g>
    
    <!-- 图例 -->
    <g transform="translate(1000, 130)">
        <text x="0" y="0" font-family="Arial" font-size="14" font-weight="bold" fill="#333">图例</text>
        
        <rect x="0" y="15" width="20" height="20" fill="url(#gradAll)"/>
        <text x="30" y="30" font-family="Arial" font-size="12" fill="#333">共享基础服务</text>
        
        <rect x="0" y="45" width="20" height="20" fill="url(#gradESB)"/>
        <text x="30" y="60" font-family="Arial" font-size="12" fill="#333">ESB服务总线</text>
        
        <rect x="0" y="75" width="20" height="20" fill="url(#gradGas)"/>
        <text x="30" y="90" font-family="Arial" font-size="12" fill="#333">MU板块服务</text>
        
        <rect x="0" y="105" width="20" height="20" fill="url(#gradExtend)"/>
        <text x="30" y="120" font-family="Arial" font-size="12" fill="#333">延伸业务服务</text>
        
        <rect x="0" y="135" width="20" height="20" fill="url(#gradRenew)"/>
        <text x="30" y="150" font-family="Arial" font-size="12" fill="#333">再生业务服务</text>
        
        <rect x="0" y="165" width="20" height="20" fill="url(#gradExt)"/>
        <text x="30" y="180" font-family="Arial" font-size="12" fill="#333">外部系统</text>
        
        <line x1="0" y1="210" x2="30" y2="210" stroke="#2a9d8f" stroke-width="2" marker-end="url(#arrowhead)"/>
        <text x="40" y="215" font-family="Arial" font-size="12" fill="#333">ESB服务调用</text>
        
        <line x1="0" y1="240" x2="30" y2="240" stroke="#666" stroke-width="2" stroke-dasharray="5,5" marker-end="url(#arrowhead)"/>
        <text x="40" y="245" font-family="Arial" font-size="12" fill="#333">API直连</text>
    </g>
</svg>