<svg width="1200" height="1000" xmlns="http://www.w3.org/2000/svg">
    <!-- 定义渐变 -->
    <defs>
        <linearGradient id="gradAll" x1="0%" y1="0%" x2="100%" y2="100%">
            <stop offset="0%" stop-color="#4b6cb7" stop-opacity="0.8"/>
            <stop offset="100%" stop-color="#182848" stop-opacity="0.9"/>
        </linearGradient>
        <linearGradient id="gradGas" x1="0%" y1="0%" x2="100%" y2="100%">
            <stop offset="0%" stop-color="#38a3a5" stop-opacity="0.8"/>
            <stop offset="100%" stop-color="#056674" stop-opacity="0.9"/>
        </linearGradient>
        <linearGradient id="gradExtend" x1="0%" y1="0%" x2="100%" y2="100%">
            <stop offset="0%" stop-color="#f08700" stop-opacity="0.8"/>
            <stop offset="100%" stop-color="#d95d39" stop-opacity="0.9"/>
        </linearGradient>
        <linearGradient id="gradRenew" x1="0%" y1="0%" x2="100%" y2="100%">
            <stop offset="0%" stop-color="#557b83" stop-opacity="0.8"/>
            <stop offset="100%" stop-color="#405459" stop-opacity="0.9"/>
        </linearGradient>
        <linearGradient id="gradExt" x1="0%" y1="0%" x2="100%" y2="100%">
            <stop offset="0%" stop-color="#6c464f" stop-opacity="0.8"/>
            <stop offset="100%" stop-color="#432c32" stop-opacity="0.9"/>
        </linearGradient>
        
        <!-- 定义阴影 -->
        <filter id="shadow" x="-20%" y="-20%" width="140%" height="140%">
            <feDropShadow dx="3" dy="3" stdDeviation="3" flood-color="#00000044"/>
        </filter>
        
        <!-- 定义箭头 -->
        <marker id="arrowhead" markerWidth="10" markerHeight="7" refX="9" refY="3.5" orient="auto">
            <polygon points="0 0, 10 3.5, 0 7" fill="#333"/>
        </marker>
        <marker id="bidirectional" markerWidth="10" markerHeight="7" refX="5" refY="3.5" orient="auto">
            <polygon points="0 0, 5 3.5, 0 7" fill="#333"/>
        </marker>
    </defs>
    
    <!-- 背景 -->
    <rect width="1200" height="1000" fill="#f4f7fc"/>
    
    <!-- 业务板块区域 -->
    <rect x="50" y="80" width="1100" height="170" rx="15" fill="#f2f2f2" stroke="#ccc" stroke-width="1" stroke-dasharray="5,3"/>
    <text x="100" y="110" font-family="Arial" font-size="18" font-weight="bold" fill="#4b6cb7">全集团共享平台</text>
    
    <rect x="50" y="260" width="1100" height="200" rx="15" fill="#edf9f9" stroke="#ccc" stroke-width="1" stroke-dasharray="5,3"/>
    <text x="100" y="290" font-family="Arial" font-size="18" font-weight="bold" fill="#38a3a5">MU板块</text>
    
    <rect x="50" y="470" width="500" height="180" rx="15" fill="#fff9ea" stroke="#ccc" stroke-width="1" stroke-dasharray="5,3"/>
    <text x="100" y="500" font-family="Arial" font-size="18" font-weight="bold" fill="#f08700">延伸业务</text>
    
    <rect x="560" y="470" width="590" height="270" rx="15" fill="#eef2f3" stroke="#ccc" stroke-width="1" stroke-dasharray="5,3"/>
    <text x="610" y="500" font-family="Arial" font-size="18" font-weight="bold" fill="#557b83">再生业务</text>
    
    <rect x="50" y="750" width="1100" height="180" rx="15" fill="#f5eef0" stroke="#ccc" stroke-width="1" stroke-dasharray="5,3"/>
    <text x="100" y="780" font-family="Arial" font-size="18" font-weight="bold" fill="#6c464f">外部系统</text>
    
    <!-- 系统节点 -->
    <!-- 全集团节点 -->
    <g transform="translate(350, 160)">
        <circle cx="0" cy="0" r="50" fill="url(#gradAll)" stroke="#4b6cb7" stroke-width="2" filter="url(#shadow)"/>
        <text x="0" y="0" font-family="Arial" font-size="18" font-weight="bold" text-anchor="middle" fill="white">AD</text>
        <text x="0" y="20" font-family="Arial" font-size="12" text-anchor="middle" fill="white">认证中心</text>
    </g>
    
    <g transform="translate(700, 160)">
        <rect x="-70" y="-40" width="140" height="80" rx="10" fill="url(#gradAll)" stroke="#4b6cb7" stroke-width="2" filter="url(#shadow)"/>
        <text x="0" y="0" font-family="Arial" font-size="18" font-weight="bold" text-anchor="middle" fill="white">BI</text>
        <text x="0" y="20" font-family="Arial" font-size="12" text-anchor="middle" fill="white">数据分析平台</text>
    </g>
    
    <!-- MU板块节点 -->
    <g transform="translate(200, 360)">
        <rect x="-70" y="-40" width="140" height="80" rx="10" fill="url(#gradGas)" stroke="#38a3a5" stroke-width="2" filter="url(#shadow)"/>
        <text x="0" y="0" font-family="Arial" font-size="18" font-weight="bold" text-anchor="middle" fill="white">TMS</text>
        <text x="0" y="20" font-family="Arial" font-size="12" text-anchor="middle" fill="white">财务/人力/供应链</text>
    </g>
    
    <g transform="translate(500, 360)">
        <rect x="-70" y="-40" width="140" height="80" rx="10" fill="url(#gradGas)" stroke="#38a3a5" stroke-width="2" filter="url(#shadow)"/>
        <text x="0" y="0" font-family="Arial" font-size="18" font-weight="bold" text-anchor="middle" fill="white">TCIS</text>
        <text x="0" y="20" font-family="Arial" font-size="12" text-anchor="middle" fill="white">燃气业务系统</text>
    </g>
    
    <g transform="translate(800, 360)">
        <rect x="-70" y="-40" width="140" height="80" rx="10" fill="url(#gradGas)" stroke="#38a3a5" stroke-width="2" filter="url(#shadow)"/>
        <text x="0" y="0" font-family="Arial" font-size="18" font-weight="bold" text-anchor="middle" fill="white">TOP</text>
        <text x="0" y="20" font-family="Arial" font-size="12" text-anchor="middle" fill="white">生产运行系统</text>
    </g>
    
    <!-- 延伸业务节点 -->
    <g transform="translate(300, 560)">
        <rect x="-70" y="-40" width="140" height="80" rx="10" fill="url(#gradExtend)" stroke="#f08700" stroke-width="2" filter="url(#shadow)"/>
        <text x="0" y="0" font-family="Arial" font-size="18" font-weight="bold" text-anchor="middle" fill="white">TLC</text>
        <text x="0" y="20" font-family="Arial" font-size="12" text-anchor="middle" fill="white">贸易系统</text>
    </g>
    
    <!-- 再生业务节点 -->
    <g transform="translate(680, 540)">
        <rect x="-70" y="-40" width="140" height="80" rx="10" fill="url(#gradRenew)" stroke="#557b83" stroke-width="2" filter="url(#shadow)"/>
        <text x="0" y="0" font-family="Arial" font-size="18" font-weight="bold" text-anchor="middle" fill="white">碳汭星云</text>
        <text x="0" y="20" font-family="Arial" font-size="12" text-anchor="middle" fill="white">能源业务平台</text>
    </g>
    
    <g transform="translate(900, 540)">
        <rect x="-70" y="-40" width="140" height="80" rx="10" fill="url(#gradRenew)" stroke="#557b83" stroke-width="2" filter="url(#shadow)"/>
        <text x="0" y="0" font-family="Arial" font-size="18" font-weight="bold" text-anchor="middle" fill="white">光伏星</text>
        <text x="0" y="20" font-family="Arial" font-size="12" text-anchor="middle" fill="white">光伏管理系统</text>
    </g>
    
    <g transform="translate(680, 650)">
        <rect x="-70" y="-40" width="140" height="80" rx="10" fill="url(#gradRenew)" stroke="#557b83" stroke-width="2" filter="url(#shadow)"/>
        <text x="0" y="0" font-family="Arial" font-size="18" font-weight="bold" text-anchor="middle" fill="white">VPP星</text>
        <text x="0" y="20" font-family="Arial" font-size="12" text-anchor="middle" fill="white">虚拟电厂系统</text>
    </g>
    
    <g transform="translate(900, 650)">
        <rect x="-70" y="-40" width="140" height="80" rx="10" fill="url(#gradRenew)" stroke="#557b83" stroke-width="2" filter="url(#shadow)"/>
        <text x="0" y="0" font-family="Arial" font-size="18" font-weight="bold" text-anchor="middle" fill="white">运维星</text>
        <text x="0" y="20" font-family="Arial" font-size="12" text-anchor="middle" fill="white">运维管理系统</text>
    </g>
    
    <!-- 外部系统节点 -->
    <g transform="translate(200, 850)">
        <rect x="-80" y="-30" width="160" height="60" rx="10" fill="url(#gradExt)" stroke="#6c464f" stroke-width="2" filter="url(#shadow)"/>
        <text x="0" y="5" font-family="Arial" font-size="16" font-weight="bold" text-anchor="middle" fill="white">支付/票据</text>
    </g>
    
    <g transform="translate(450, 850)">
        <rect x="-80" y="-30" width="160" height="60" rx="10" fill="url(#gradExt)" stroke="#6c464f" stroke-width="2" filter="url(#shadow)"/>
        <text x="0" y="5" font-family="Arial" font-size="16" font-weight="bold" text-anchor="middle" fill="white">微信/APP</text>
    </g>
    
    <g transform="translate(700, 850)">
        <rect x="-80" y="-30" width="160" height="60" rx="10" fill="url(#gradExt)" stroke="#6c464f" stroke-width="2" filter="url(#shadow)"/>
        <text x="0" y="5" font-family="Arial" font-size="16" font-weight="bold" text-anchor="middle" fill="white">终端设备</text>
    </g>
    
    <g transform="translate(950, 850)">
        <rect x="-80" y="-30" width="160" height="60" rx="10" fill="url(#gradExt)" stroke="#6c464f" stroke-width="2" filter="url(#shadow)"/>
        <text x="0" y="5" font-family="Arial" font-size="16" font-weight="bold" text-anchor="middle" fill="white">传感/视频设备</text>
    </g>
    
    <!-- 连接线 -->
    <!-- AD与业务系统连接 -->
    <path d="M 350,210 C 350,260 250,300 200,320" stroke="#333" stroke-width="2" fill="none" marker-end="url(#arrowhead)"/>
    <rect x="240" y="250" width="120" height="40" rx="10" fill="white" stroke="#ddd" stroke-width="1" opacity="0.9"/>
    <text x="300" y="270" font-family="Arial" font-size="11" text-anchor="middle" fill="#333">
        <tspan x="300" dy="0">账号登录认证</tspan>
        <tspan x="300" dy="15">账号信息同步</tspan>
    </text>
    
    <path d="M 350,210 C 350,260 450,300 500,320" stroke="#333" stroke-width="2" fill="none" marker-end="url(#arrowhead)"/>
    <rect x="390" y="250" width="120" height="40" rx="10" fill="white" stroke="#ddd" stroke-width="1" opacity="0.9"/>
    <text x="450" y="270" font-family="Arial" font-size="11" text-anchor="middle" fill="#333">
        <tspan x="450" dy="0">账号登录认证</tspan>
    </text>
    
    <path d="M 380,160 C 480,160 580,160 630,160" stroke="#333" stroke-width="2" fill="none" marker-end="url(#arrowhead)"/>
    <rect x="480" y="130" width="60" height="25" rx="10" fill="white" stroke="#ddd" stroke-width="1" opacity="0.9"/>
    <text x="510" y="147" font-family="Arial" font-size="11" text-anchor="middle" fill="#333">
        <tspan x="510" dy="0">账号认证</tspan>
    </text>
    
    <path d="M 350,210 C 350,260 650,300 800,320" stroke="#333" stroke-width="2" fill="none" marker-end="url(#arrowhead)"/>
    <rect x="550" y="250" width="120" height="40" rx="10" fill="white" stroke="#ddd" stroke-width="1" opacity="0.9"/>
    <text x="610" y="270" font-family="Arial" font-size="11" text-anchor="middle" fill="#333">
        <tspan x="610" dy="0">账号登录认证</tspan>
        <tspan x="610" dy="15">账号信息同步</tspan>
    </text>
    
    <!-- TMS与其他系统连接 -->
    <path d="M 230,360 C 300,360 380,360 430,360" stroke="#333" stroke-width="2" fill="none" marker-start="url(#bidirectional)" marker-end="url(#bidirectional)"/>
    <rect x="290" y="330" width="120" height="40" rx="10" fill="white" stroke="#ddd" stroke-width="1" opacity="0.9"/>
    <text x="350" y="350" font-family="Arial" font-size="11" text-anchor="middle" fill="#333">
        <tspan x="350" dy="0">缴费应收应付</tspan>
        <tspan x="350" dy="15">用户信息</tspan>
    </text>
    
    <path d="M 200,320 C 200,250 550,180 700,160" stroke="#333" stroke-width="2" fill="none" marker-end="url(#arrowhead)"/>
    <rect x="400" y="200" width="100" height="25" rx="10" fill="white" stroke="#ddd" stroke-width="1" opacity="0.9"/>
    <text x="450" y="217" font-family="Arial" font-size="11" text-anchor="middle" fill="#333">
        <tspan x="450" dy="0">业务财务数据</tspan>
    </text>
    
    <path d="M 200,400 C 200,450 250,520 300,520" stroke="#333" stroke-width="2" fill="none" marker-start="url(#bidirectional)" marker-end="url(#bidirectional)"/>
    <rect x="190" y="450" width="120" height="40" rx="10" fill="white" stroke="#ddd" stroke-width="1" opacity="0.9"/>
    <text x="250" y="470" font-family="Arial" font-size="11" text-anchor="middle" fill="#333">
        <tspan x="250" dy="0">物料单据管理</tspan>
        <tspan x="250" dy="15">贸易订单</tspan>
    </text>
    
    <path d="M 200,400 C 200,500 600,800 700,820" stroke="#333" stroke-width="2" fill="none" marker-end="url(#arrowhead)"/>
    <rect x="380" y="650" width="90" height="25" rx="10" fill="white" stroke="#ddd" stroke-width="1" opacity="0.9"/>
    <text x="425" y="667" font-family="Arial" font-size="11" text-anchor="middle" fill="#333">
        <tspan x="425" dy="0">终端操作管理</tspan>
    </text>
    
    <!-- TMS与再生业务连接 -->
    <path d="M 200,400 C 300,450 500,500 680,540" stroke="#333" stroke-width="2" fill="none" marker-end="url(#arrowhead)"/>
    <rect x="430" y="460" width="100" height="40" rx="10" fill="white" stroke="#ddd" stroke-width="1" opacity="0.9"/>
    <text x="480" y="480" font-family="Arial" font-size="11" text-anchor="middle" fill="#333">
        <tspan x="480" dy="0">应收应付</tspan>
        <tspan x="480" dy="15">财务数据</tspan>
    </text>
    
    <!-- TCIS与其他系统连接 -->
    <path d="M 500,400 C 500,500 450,800 450,820" stroke="#333" stroke-width="2" fill="none" marker-start="url(#bidirectional)" marker-end="url(#bidirectional)"/>
    <rect x="460" y="600" width="100" height="40" rx="10" fill="white" stroke="#ddd" stroke-width="1" opacity="0.9"/>
    <text x="510" y="620" font-family="Arial" font-size="11" text-anchor="middle" fill="#333">
        <tspan x="510" dy="0">客户信息推送</tspan>
        <tspan x="510" dy="15">燃气费缴费</tspan>
    </text>
    
    <path d="M 500,400 C 500,500 250,800 200,820" stroke="#333" stroke-width="2" fill="none" marker-start="url(#bidirectional)" marker-end="url(#bidirectional)"/>
    <rect x="300" y="650" width="100" height="40" rx="10" fill="white" stroke="#ddd" stroke-width="1" opacity="0.9"/>
    <text x="350" y="670" font-family="Arial" font-size="11" text-anchor="middle" fill="#333">
        <tspan x="350" dy="0">实时缴费/充值</tspan>
        <tspan x="350" dy="15">IC卡写入</tspan>
    </text>
    
    <path d="M 500,320 C 500,250 650,180 700,160" stroke="#333" stroke-width="2" fill="none" marker-end="url(#arrowhead)"/>
    <rect x="550" y="210" width="100" height="40" rx="10" fill="white" stroke="#ddd" stroke-width="1" opacity="0.9"/>
    <text x="600" y="230" font-family="Arial" font-size="11" text-anchor="middle" fill="#333">
        <tspan x="600" dy="0">用户数据</tspan>
        <tspan x="600" dy="15">表计数据</tspan>
    </text>
    
    <!-- TCIS与再生业务连接 -->
    <path d="M 500,400 C 550,450 600,500 680,540" stroke="#333" stroke-width="2" fill="none" marker-end="url(#arrowhead)"/>
    <rect x="580" y="460" width="100" height="25" rx="10" fill="white" stroke="#ddd" stroke-width="1" opacity="0.9"/>
    <text x="630" y="477" font-family="Arial" font-size="11" text-anchor="middle" fill="#333">
        <tspan x="630" dy="0">用户用气统计</tspan>
    </text>
    
    <!-- TOP与其他系统连接 -->
    <path d="M 800,320 C 800,250 750,180 700,160" stroke="#333" stroke-width="2" fill="none" marker-end="url(#arrowhead)"/>
    <rect x="730" y="210" width="100" height="40" rx="10" fill="white" stroke="#ddd" stroke-width="1" opacity="0.9"/>
    <text x="780" y="230" font-family="Arial" font-size="11" text-anchor="middle" fill="#333">
        <tspan x="780" dy="0">生产数据</tspan>
        <tspan x="780" dy="15">运行状态</tspan>
    </text>
    
    <path d="M 800,400 C 800,550 700,800 700,820" stroke="#333" stroke-width="2" fill="none" marker-start="url(#bidirectional)" marker-end="url(#bidirectional)"/>
    <rect x="740" y="650" width="100" height="40" rx="10" fill="white" stroke="#ddd" stroke-width="1" opacity="0.9"/>
    <text x="790" y="670" font-family="Arial" font-size="11" text-anchor="middle" fill="#333">
        <tspan x="790" dy="0">实时定位跟踪</tspan>
        <tspan x="790" dy="15">设备操作</tspan>
    </text>
    
    <path d="M 800,400 C 800,500 950,800 950,820" stroke="#333" stroke-width="2" fill="none" marker-start="url(#bidirectional)" marker-end="url(#bidirectional)"/>
    <rect x="870" y="650" width="100" height="55" rx="10" fill="white" stroke="#ddd" stroke-width="1" opacity="0.9"/>
    <text x="920" y="677" font-family="Arial" font-size="11" text-anchor="middle" fill="#333">
        <tspan x="920" dy="-10">视频接入</tspan>
        <tspan x="920" dy="10">传感器数据</tspan>
        <tspan x="920" dy="30">气象数据</tspan>
    </text>
    
    <path d="M 570,360 C 640,360 680,360 730,360" stroke="#333" stroke-width="2" fill="none" marker-start="url(#bidirectional)" marker-end="url(#bidirectional)"/>
    <rect x="620" y="330" width="100" height="40" rx="10" fill="white" stroke="#ddd" stroke-width="1" opacity="0.9"/>
    <text x="670" y="350" font-family="Arial" font-size="11" text-anchor="middle" fill="#333">
        <tspan x="670" dy="0">用户用气情况</tspan>
        <tspan x="670" dy="15">接入范围管理</tspan>
    </text>
    
    <!-- 再生业务内部连接 -->
    <path d="M 750,540 C 790,540 830,540 830,540" stroke="#333" stroke-width="2" fill="none" marker-end="url(#arrowhead)"/>
    <rect x="770" y="510" width="70" height="25" rx="10" fill="white" stroke="#ddd" stroke-width="1" opacity="0.9"/>
    <text x="805" y="527" font-family="Arial" font-size="11" text-anchor="middle" fill="#333">
        <tspan x="805" dy="0">光伏数据</tspan>
    </text>
    
    <path d="M 680,580 C 680,600 680,610 680,610" stroke="#333" stroke-width="2" fill="none" marker-end="url(#arrowhead)"/>
    <rect x="630" y="590" width="70" height="25" rx="10" fill="white" stroke="#ddd" stroke-width="1" opacity="0.9"/>
    <text x="665" y="607" font-family="Arial" font-size="11" text-anchor="middle" fill="#333">
        <tspan x="665" dy="0">能源调度</tspan>
    </text>
    
    <path d="M 750,650 C 790,650 830,650 830,650" stroke="#333" stroke-width="2" fill="none" marker-end="url(#arrowhead)"/>
    <rect x="770" y="620" width="70" height="25" rx="10" fill="white" stroke="#ddd" stroke-width="1" opacity="0.9"/>
    <text x="805" y="637" font-family="Arial" font-size="11" text-anchor="middle" fill="#333">
        <tspan x="805" dy="0">设备维护</tspan>
    </text>
    
    <!-- 再生业务与外部系统连接 -->
    <path d="M 900,690 C 900,740 950,800 950,820" stroke="#333" stroke-width="2" fill="none" marker-start="url(#bidirectional)" marker-end="url(#bidirectional)"/>
    <rect x="920" y="750" width="100" height="40" rx="10" fill="white" stroke="#ddd" stroke-width="1" opacity="0.9"/>
    <text x="970" y="770" font-family="Arial" font-size="11" text-anchor="middle" fill="#333">
        <tspan x="970" dy="0">设备采集数据</tspan>
        <tspan x="970" dy="15">远程控制</tspan>
    </text>
    
    <!-- TLC连接 -->
    <path d="M 300,600 C 300,650 250,800 200,820" stroke="#333" stroke-width="2" fill="none" marker-start="url(#bidirectional)" marker-end="url(#bidirectional)"/>
    <rect x="210" y="700" width="100" height="40" rx="10" fill="white" stroke="#ddd" stroke-width="1" opacity="0.9"/>
    <text x="260" y="720" font-family="Arial" font-size="11" text-anchor="middle" fill="#333">
        <tspan x="260" dy="0">合同签约</tspan>
        <tspan x="260" dy="15">发票信息/支付</tspan>
    </text>
    
    <path d="M 300,520 C 300,450 500,250 700,160" stroke="#333" stroke-width="2" fill="none" marker-end="url(#arrowhead)"/>
    <rect x="400" y="300" width="100" height="40" rx="10" fill="white" stroke="#ddd" stroke-width="1" opacity="0.9"/>
    <text x="450" y="320" font-family="Arial" font-size="11" text-anchor="middle" fill="#333">
        <tspan x="450" dy="0">交易数据</tspan>
        <tspan x="450" dy="15">定价数据</tspan>
    </text>
    
    <!-- 标题 -->
    <text x="600" y="50" font-family="Arial" font-size="28" font-weight="bold" text-anchor="middle" fill="#333">港华集团系统集成关系图</text>
    
    <!-- 图例 -->
    <g transform="translate(1000, 800)">
        <text x="0" y="0" font-family="Arial" font-size="14" font-weight="bold" fill="#333">图例</text>
        
        <rect x="0" y="15" width="20" height="20" fill="url(#gradAll)"/>
        <text x="30" y="30" font-family="Arial" font-size="12" fill="#333">全集团系统</text>
        
        <rect x="0" y="45" width="20" height="20" fill="url(#gradGas)"/>
        <text x="30" y="60" font-family="Arial" font-size="12" fill="#333">MU板块系统</text>
        
        <rect x="0" y="75" width="20" height="20" fill="url(#gradExtend)"/>
        <text x="30" y="90" font-family="Arial" font-size="12" fill="#333">延伸业务系统</text>
        
        <rect x="0" y="105" width="20" height="20" fill="url(#gradRenew)"/>
        <text x="30" y="120" font-family="Arial" font-size="12" fill="#333">再生业务系统</text>
        
        <rect x="0" y="135" width="20" height="20" fill="url(#gradExt)"/>
        <text x="30" y="150" font-family="Arial" font-size="12" fill="#333">外部系统</text>
    </g>
</svg>